<mxfile host="app.diagrams.net" modified="2023-10-18T09:34:14.765Z" agent="Mozilla/5.0 (Windows NT 10.0; Win64; x64) AppleWebKit/537.36 (KHTML, like Gecko) Chrome/116.0.0.0 Safari/537.36" etag="laPvdb2mJxlkHjtVJY8h" version="21.7.5" type="github">
  <diagram id="C5RBs43oDa-KdzZeNtuy" name="Page-1">
    <mxGraphModel dx="794" dy="503" grid="0" gridSize="10" guides="1" tooltips="1" connect="1" arrows="1" fold="1" page="1" pageScale="1" pageWidth="1169" pageHeight="827" math="0" shadow="0">
      <root>
        <mxCell id="WIyWlLk6GJQsqaUBKTNV-0" />
        <mxCell id="WIyWlLk6GJQsqaUBKTNV-1" parent="WIyWlLk6GJQsqaUBKTNV-0" />
        <mxCell id="dll8_rj09az58H-58eIl-68" style="edgeStyle=orthogonalEdgeStyle;rounded=0;orthogonalLoop=1;jettySize=auto;html=1;exitX=0.5;exitY=1;exitDx=0;exitDy=0;entryX=0.5;entryY=0;entryDx=0;entryDy=0;" edge="1" parent="WIyWlLk6GJQsqaUBKTNV-1" source="dll8_rj09az58H-58eIl-65" target="dll8_rj09az58H-58eIl-67">
          <mxGeometry relative="1" as="geometry" />
        </mxCell>
        <mxCell id="dll8_rj09az58H-58eIl-65" value="StartingStep&lt;br&gt;Dummy Step (to initialize the jobParameters)" style="rounded=1;whiteSpace=wrap;html=1;" vertex="1" parent="WIyWlLk6GJQsqaUBKTNV-1">
          <mxGeometry x="277" y="324" width="120" height="60" as="geometry" />
        </mxCell>
        <mxCell id="dll8_rj09az58H-58eIl-71" style="edgeStyle=orthogonalEdgeStyle;rounded=0;orthogonalLoop=1;jettySize=auto;html=1;entryX=0;entryY=0.5;entryDx=0;entryDy=0;" edge="1" parent="WIyWlLk6GJQsqaUBKTNV-1" source="dll8_rj09az58H-58eIl-67" target="dll8_rj09az58H-58eIl-70">
          <mxGeometry relative="1" as="geometry" />
        </mxCell>
        <mxCell id="dll8_rj09az58H-58eIl-88" style="edgeStyle=orthogonalEdgeStyle;rounded=0;orthogonalLoop=1;jettySize=auto;html=1;exitX=0.5;exitY=1;exitDx=0;exitDy=0;entryX=0.5;entryY=0;entryDx=0;entryDy=0;" edge="1" parent="WIyWlLk6GJQsqaUBKTNV-1" source="dll8_rj09az58H-58eIl-67" target="dll8_rj09az58H-58eIl-86">
          <mxGeometry relative="1" as="geometry" />
        </mxCell>
        <mxCell id="dll8_rj09az58H-58eIl-67" value="Decider&lt;br&gt;if dataType==BL" style="rhombus;whiteSpace=wrap;html=1;" vertex="1" parent="WIyWlLk6GJQsqaUBKTNV-1">
          <mxGeometry x="264.5" y="417" width="145" height="80" as="geometry" />
        </mxCell>
        <mxCell id="dll8_rj09az58H-58eIl-78" style="edgeStyle=orthogonalEdgeStyle;rounded=0;orthogonalLoop=1;jettySize=auto;html=1;exitX=1;exitY=0.25;exitDx=0;exitDy=0;entryX=0;entryY=0.5;entryDx=0;entryDy=0;" edge="1" parent="WIyWlLk6GJQsqaUBKTNV-1" source="dll8_rj09az58H-58eIl-70" target="dll8_rj09az58H-58eIl-73">
          <mxGeometry relative="1" as="geometry">
            <Array as="points">
              <mxPoint x="599" y="442" />
              <mxPoint x="599" y="394" />
            </Array>
          </mxGeometry>
        </mxCell>
        <mxCell id="dll8_rj09az58H-58eIl-82" style="edgeStyle=orthogonalEdgeStyle;rounded=0;orthogonalLoop=1;jettySize=auto;html=1;exitX=1;exitY=0.5;exitDx=0;exitDy=0;entryX=0;entryY=0.5;entryDx=0;entryDy=0;" edge="1" parent="WIyWlLk6GJQsqaUBKTNV-1" source="dll8_rj09az58H-58eIl-70" target="dll8_rj09az58H-58eIl-75">
          <mxGeometry relative="1" as="geometry" />
        </mxCell>
        <mxCell id="dll8_rj09az58H-58eIl-83" style="edgeStyle=orthogonalEdgeStyle;rounded=0;orthogonalLoop=1;jettySize=auto;html=1;exitX=1;exitY=0.75;exitDx=0;exitDy=0;entryX=0.075;entryY=0.301;entryDx=0;entryDy=0;entryPerimeter=0;" edge="1" parent="WIyWlLk6GJQsqaUBKTNV-1" source="dll8_rj09az58H-58eIl-70" target="dll8_rj09az58H-58eIl-74">
          <mxGeometry relative="1" as="geometry" />
        </mxCell>
        <mxCell id="dll8_rj09az58H-58eIl-124" style="edgeStyle=orthogonalEdgeStyle;rounded=0;orthogonalLoop=1;jettySize=auto;html=1;exitX=0.5;exitY=1;exitDx=0;exitDy=0;entryX=0.5;entryY=0;entryDx=0;entryDy=0;" edge="1" parent="WIyWlLk6GJQsqaUBKTNV-1" source="dll8_rj09az58H-58eIl-70" target="dll8_rj09az58H-58eIl-123">
          <mxGeometry relative="1" as="geometry" />
        </mxCell>
        <mxCell id="dll8_rj09az58H-58eIl-70" value="BLIndexing will be initiated" style="rounded=1;whiteSpace=wrap;html=1;" vertex="1" parent="WIyWlLk6GJQsqaUBKTNV-1">
          <mxGeometry x="468" y="427" width="120" height="60" as="geometry" />
        </mxCell>
        <mxCell id="dll8_rj09az58H-58eIl-73" value="BLIndexing&lt;br&gt;Reader(DB)" style="ellipse;whiteSpace=wrap;html=1;" vertex="1" parent="WIyWlLk6GJQsqaUBKTNV-1">
          <mxGeometry x="629" y="374" width="120" height="41" as="geometry" />
        </mxCell>
        <mxCell id="dll8_rj09az58H-58eIl-74" value="BLIndexing&lt;br&gt;Writer" style="ellipse;whiteSpace=wrap;html=1;" vertex="1" parent="WIyWlLk6GJQsqaUBKTNV-1">
          <mxGeometry x="628" y="474" width="120" height="41" as="geometry" />
        </mxCell>
        <mxCell id="dll8_rj09az58H-58eIl-75" value="BLIndexing&lt;br&gt;Processor" style="ellipse;whiteSpace=wrap;html=1;" vertex="1" parent="WIyWlLk6GJQsqaUBKTNV-1">
          <mxGeometry x="629" y="424" width="120" height="41" as="geometry" />
        </mxCell>
        <mxCell id="dll8_rj09az58H-58eIl-76" style="edgeStyle=orthogonalEdgeStyle;rounded=0;orthogonalLoop=1;jettySize=auto;html=1;exitX=0.5;exitY=1;exitDx=0;exitDy=0;" edge="1" parent="WIyWlLk6GJQsqaUBKTNV-1" source="dll8_rj09az58H-58eIl-75" target="dll8_rj09az58H-58eIl-75">
          <mxGeometry relative="1" as="geometry" />
        </mxCell>
        <mxCell id="dll8_rj09az58H-58eIl-84" value="Yes" style="text;html=1;strokeColor=none;fillColor=none;align=center;verticalAlign=middle;whiteSpace=wrap;rounded=0;" vertex="1" parent="WIyWlLk6GJQsqaUBKTNV-1">
          <mxGeometry x="403" y="433" width="60" height="30" as="geometry" />
        </mxCell>
        <mxCell id="dll8_rj09az58H-58eIl-90" style="edgeStyle=orthogonalEdgeStyle;rounded=0;orthogonalLoop=1;jettySize=auto;html=1;exitX=0.5;exitY=1;exitDx=0;exitDy=0;entryX=0.5;entryY=0;entryDx=0;entryDy=0;" edge="1" parent="WIyWlLk6GJQsqaUBKTNV-1" source="dll8_rj09az58H-58eIl-86" target="dll8_rj09az58H-58eIl-89">
          <mxGeometry relative="1" as="geometry" />
        </mxCell>
        <mxCell id="dll8_rj09az58H-58eIl-98" style="edgeStyle=orthogonalEdgeStyle;rounded=0;orthogonalLoop=1;jettySize=auto;html=1;exitX=0;exitY=0.25;exitDx=0;exitDy=0;entryX=1;entryY=0.5;entryDx=0;entryDy=0;" edge="1" parent="WIyWlLk6GJQsqaUBKTNV-1" source="dll8_rj09az58H-58eIl-86" target="dll8_rj09az58H-58eIl-94">
          <mxGeometry relative="1" as="geometry" />
        </mxCell>
        <mxCell id="dll8_rj09az58H-58eIl-99" style="edgeStyle=orthogonalEdgeStyle;rounded=0;orthogonalLoop=1;jettySize=auto;html=1;exitX=0;exitY=0.75;exitDx=0;exitDy=0;entryX=1;entryY=0.5;entryDx=0;entryDy=0;" edge="1" parent="WIyWlLk6GJQsqaUBKTNV-1" source="dll8_rj09az58H-58eIl-86" target="dll8_rj09az58H-58eIl-95">
          <mxGeometry relative="1" as="geometry" />
        </mxCell>
        <mxCell id="dll8_rj09az58H-58eIl-86" value="Product Indexing&lt;br&gt;DbToCsv" style="rounded=1;whiteSpace=wrap;html=1;" vertex="1" parent="WIyWlLk6GJQsqaUBKTNV-1">
          <mxGeometry x="277" y="536" width="120" height="60" as="geometry" />
        </mxCell>
        <mxCell id="dll8_rj09az58H-58eIl-107" style="edgeStyle=orthogonalEdgeStyle;rounded=0;orthogonalLoop=1;jettySize=auto;html=1;exitX=1;exitY=0.5;exitDx=0;exitDy=0;entryX=0;entryY=0.5;entryDx=0;entryDy=0;" edge="1" parent="WIyWlLk6GJQsqaUBKTNV-1" source="dll8_rj09az58H-58eIl-89" target="dll8_rj09az58H-58eIl-111">
          <mxGeometry relative="1" as="geometry">
            <mxPoint x="570.0000610351562" y="645.3333129882812" as="targetPoint" />
          </mxGeometry>
        </mxCell>
        <mxCell id="dll8_rj09az58H-58eIl-113" style="edgeStyle=orthogonalEdgeStyle;rounded=0;orthogonalLoop=1;jettySize=auto;html=1;exitX=0.5;exitY=1;exitDx=0;exitDy=0;entryX=0.5;entryY=0;entryDx=0;entryDy=0;" edge="1" parent="WIyWlLk6GJQsqaUBKTNV-1" source="dll8_rj09az58H-58eIl-89" target="dll8_rj09az58H-58eIl-92">
          <mxGeometry relative="1" as="geometry" />
        </mxCell>
        <mxCell id="dll8_rj09az58H-58eIl-89" value="if dbToCsv==&lt;br&gt;successful" style="rhombus;whiteSpace=wrap;html=1;" vertex="1" parent="WIyWlLk6GJQsqaUBKTNV-1">
          <mxGeometry x="287.5" y="623" width="99" height="104" as="geometry" />
        </mxCell>
        <mxCell id="dll8_rj09az58H-58eIl-104" style="edgeStyle=orthogonalEdgeStyle;rounded=0;orthogonalLoop=1;jettySize=auto;html=1;exitX=1;exitY=0.25;exitDx=0;exitDy=0;entryX=0;entryY=0.5;entryDx=0;entryDy=0;" edge="1" parent="WIyWlLk6GJQsqaUBKTNV-1" source="dll8_rj09az58H-58eIl-92" target="dll8_rj09az58H-58eIl-100">
          <mxGeometry relative="1" as="geometry" />
        </mxCell>
        <mxCell id="dll8_rj09az58H-58eIl-105" style="edgeStyle=orthogonalEdgeStyle;rounded=0;orthogonalLoop=1;jettySize=auto;html=1;exitX=1;exitY=0.5;exitDx=0;exitDy=0;entryX=0;entryY=0.5;entryDx=0;entryDy=0;" edge="1" parent="WIyWlLk6GJQsqaUBKTNV-1" source="dll8_rj09az58H-58eIl-92" target="dll8_rj09az58H-58eIl-102">
          <mxGeometry relative="1" as="geometry" />
        </mxCell>
        <mxCell id="dll8_rj09az58H-58eIl-106" style="edgeStyle=orthogonalEdgeStyle;rounded=0;orthogonalLoop=1;jettySize=auto;html=1;exitX=1;exitY=0.75;exitDx=0;exitDy=0;entryX=0;entryY=0.5;entryDx=0;entryDy=0;" edge="1" parent="WIyWlLk6GJQsqaUBKTNV-1" source="dll8_rj09az58H-58eIl-92" target="dll8_rj09az58H-58eIl-101">
          <mxGeometry relative="1" as="geometry" />
        </mxCell>
        <mxCell id="dll8_rj09az58H-58eIl-115" style="edgeStyle=orthogonalEdgeStyle;rounded=0;orthogonalLoop=1;jettySize=auto;html=1;exitX=0.5;exitY=1;exitDx=0;exitDy=0;entryX=0.5;entryY=0;entryDx=0;entryDy=0;" edge="1" parent="WIyWlLk6GJQsqaUBKTNV-1" source="dll8_rj09az58H-58eIl-92" target="dll8_rj09az58H-58eIl-114">
          <mxGeometry relative="1" as="geometry" />
        </mxCell>
        <mxCell id="dll8_rj09az58H-58eIl-92" value="Product-Indexing&lt;br&gt;(Csv To Solr)" style="rounded=1;whiteSpace=wrap;html=1;" vertex="1" parent="WIyWlLk6GJQsqaUBKTNV-1">
          <mxGeometry x="279" y="763" width="120" height="60" as="geometry" />
        </mxCell>
        <mxCell id="dll8_rj09az58H-58eIl-94" value="ProductDBReader" style="ellipse;whiteSpace=wrap;html=1;" vertex="1" parent="WIyWlLk6GJQsqaUBKTNV-1">
          <mxGeometry x="74" y="505" width="157" height="41" as="geometry" />
        </mxCell>
        <mxCell id="dll8_rj09az58H-58eIl-95" value="CSV-Writer" style="ellipse;whiteSpace=wrap;html=1;" vertex="1" parent="WIyWlLk6GJQsqaUBKTNV-1">
          <mxGeometry x="76" y="576" width="155" height="41" as="geometry" />
        </mxCell>
        <mxCell id="dll8_rj09az58H-58eIl-97" style="edgeStyle=orthogonalEdgeStyle;rounded=0;orthogonalLoop=1;jettySize=auto;html=1;exitX=0.5;exitY=1;exitDx=0;exitDy=0;" edge="1" parent="WIyWlLk6GJQsqaUBKTNV-1">
          <mxGeometry relative="1" as="geometry">
            <mxPoint x="183" y="592" as="sourcePoint" />
            <mxPoint x="183" y="592" as="targetPoint" />
          </mxGeometry>
        </mxCell>
        <mxCell id="dll8_rj09az58H-58eIl-100" value="ProductIndexing&lt;br&gt;Reader (Csv)" style="ellipse;whiteSpace=wrap;html=1;" vertex="1" parent="WIyWlLk6GJQsqaUBKTNV-1">
          <mxGeometry x="447" y="718" width="128" height="41" as="geometry" />
        </mxCell>
        <mxCell id="dll8_rj09az58H-58eIl-101" value="ProductIndexing&lt;br&gt;Writer" style="ellipse;whiteSpace=wrap;html=1;" vertex="1" parent="WIyWlLk6GJQsqaUBKTNV-1">
          <mxGeometry x="447" y="830" width="131" height="41" as="geometry" />
        </mxCell>
        <mxCell id="dll8_rj09az58H-58eIl-102" value="ProductIndexing&lt;br&gt;Processor" style="ellipse;whiteSpace=wrap;html=1;" vertex="1" parent="WIyWlLk6GJQsqaUBKTNV-1">
          <mxGeometry x="447" y="772" width="127" height="41" as="geometry" />
        </mxCell>
        <mxCell id="dll8_rj09az58H-58eIl-103" style="edgeStyle=orthogonalEdgeStyle;rounded=0;orthogonalLoop=1;jettySize=auto;html=1;exitX=0.5;exitY=1;exitDx=0;exitDy=0;" edge="1" parent="WIyWlLk6GJQsqaUBKTNV-1" source="dll8_rj09az58H-58eIl-102" target="dll8_rj09az58H-58eIl-102">
          <mxGeometry relative="1" as="geometry" />
        </mxCell>
        <mxCell id="dll8_rj09az58H-58eIl-108" value="No" style="text;html=1;align=center;verticalAlign=middle;resizable=0;points=[];autosize=1;strokeColor=none;fillColor=none;" vertex="1" parent="WIyWlLk6GJQsqaUBKTNV-1">
          <mxGeometry x="409.5" y="655" width="33" height="26" as="geometry" />
        </mxCell>
        <mxCell id="dll8_rj09az58H-58eIl-109" value="Yes" style="text;html=1;align=center;verticalAlign=middle;resizable=0;points=[];autosize=1;strokeColor=none;fillColor=none;" vertex="1" parent="WIyWlLk6GJQsqaUBKTNV-1">
          <mxGeometry x="305" y="727" width="38" height="26" as="geometry" />
        </mxCell>
        <mxCell id="dll8_rj09az58H-58eIl-110" value="No" style="text;html=1;align=center;verticalAlign=middle;resizable=0;points=[];autosize=1;strokeColor=none;fillColor=none;" vertex="1" parent="WIyWlLk6GJQsqaUBKTNV-1">
          <mxGeometry x="330" y="499" width="33" height="26" as="geometry" />
        </mxCell>
        <mxCell id="dll8_rj09az58H-58eIl-111" value="Failure Mail" style="rounded=1;whiteSpace=wrap;html=1;" vertex="1" parent="WIyWlLk6GJQsqaUBKTNV-1">
          <mxGeometry x="601" y="645" width="120" height="60" as="geometry" />
        </mxCell>
        <mxCell id="dll8_rj09az58H-58eIl-116" style="edgeStyle=orthogonalEdgeStyle;rounded=0;orthogonalLoop=1;jettySize=auto;html=1;exitX=1;exitY=0.5;exitDx=0;exitDy=0;entryX=0.5;entryY=1;entryDx=0;entryDy=0;" edge="1" parent="WIyWlLk6GJQsqaUBKTNV-1" source="dll8_rj09az58H-58eIl-114" target="dll8_rj09az58H-58eIl-111">
          <mxGeometry relative="1" as="geometry" />
        </mxCell>
        <mxCell id="dll8_rj09az58H-58eIl-129" style="edgeStyle=orthogonalEdgeStyle;rounded=0;orthogonalLoop=1;jettySize=auto;html=1;exitX=0.5;exitY=1;exitDx=0;exitDy=0;entryX=0;entryY=0.5;entryDx=0;entryDy=0;" edge="1" parent="WIyWlLk6GJQsqaUBKTNV-1" source="dll8_rj09az58H-58eIl-114" target="dll8_rj09az58H-58eIl-119">
          <mxGeometry relative="1" as="geometry" />
        </mxCell>
        <mxCell id="dll8_rj09az58H-58eIl-114" value="if ProductIndexing==&lt;br&gt;successful" style="rhombus;whiteSpace=wrap;html=1;" vertex="1" parent="WIyWlLk6GJQsqaUBKTNV-1">
          <mxGeometry x="262.63" y="879" width="152.75" height="104" as="geometry" />
        </mxCell>
        <mxCell id="dll8_rj09az58H-58eIl-117" value="No" style="text;html=1;align=center;verticalAlign=middle;resizable=0;points=[];autosize=1;strokeColor=none;fillColor=none;" vertex="1" parent="WIyWlLk6GJQsqaUBKTNV-1">
          <mxGeometry x="444" y="908" width="33" height="26" as="geometry" />
        </mxCell>
        <mxCell id="dll8_rj09az58H-58eIl-119" value="Success Mail" style="rounded=1;whiteSpace=wrap;html=1;" vertex="1" parent="WIyWlLk6GJQsqaUBKTNV-1">
          <mxGeometry x="581" y="983" width="120" height="60" as="geometry" />
        </mxCell>
        <mxCell id="dll8_rj09az58H-58eIl-125" style="edgeStyle=orthogonalEdgeStyle;rounded=0;orthogonalLoop=1;jettySize=auto;html=1;exitX=1;exitY=0.5;exitDx=0;exitDy=0;entryX=0.5;entryY=0;entryDx=0;entryDy=0;" edge="1" parent="WIyWlLk6GJQsqaUBKTNV-1" source="dll8_rj09az58H-58eIl-123" target="dll8_rj09az58H-58eIl-111">
          <mxGeometry relative="1" as="geometry" />
        </mxCell>
        <mxCell id="dll8_rj09az58H-58eIl-133" style="edgeStyle=orthogonalEdgeStyle;rounded=0;orthogonalLoop=1;jettySize=auto;html=1;exitX=0.5;exitY=1;exitDx=0;exitDy=0;entryX=1;entryY=0.5;entryDx=0;entryDy=0;" edge="1" parent="WIyWlLk6GJQsqaUBKTNV-1" source="dll8_rj09az58H-58eIl-123" target="dll8_rj09az58H-58eIl-119">
          <mxGeometry relative="1" as="geometry">
            <mxPoint x="746" y="1013" as="targetPoint" />
            <Array as="points">
              <mxPoint x="746" y="619" />
              <mxPoint x="746" y="1013" />
            </Array>
          </mxGeometry>
        </mxCell>
        <mxCell id="dll8_rj09az58H-58eIl-123" value="if BLIndexing==&lt;br&gt;successful" style="rhombus;whiteSpace=wrap;html=1;" vertex="1" parent="WIyWlLk6GJQsqaUBKTNV-1">
          <mxGeometry x="455" y="515" width="152.75" height="104" as="geometry" />
        </mxCell>
        <mxCell id="dll8_rj09az58H-58eIl-126" value="No" style="text;html=1;align=center;verticalAlign=middle;resizable=0;points=[];autosize=1;strokeColor=none;fillColor=none;" vertex="1" parent="WIyWlLk6GJQsqaUBKTNV-1">
          <mxGeometry x="607.5" y="544" width="33" height="26" as="geometry" />
        </mxCell>
        <mxCell id="dll8_rj09az58H-58eIl-131" value="Yes" style="text;html=1;align=center;verticalAlign=middle;resizable=0;points=[];autosize=1;strokeColor=none;fillColor=none;" vertex="1" parent="WIyWlLk6GJQsqaUBKTNV-1">
          <mxGeometry x="343" y="981" width="38" height="26" as="geometry" />
        </mxCell>
        <mxCell id="dll8_rj09az58H-58eIl-132" value="Yes" style="text;html=1;align=center;verticalAlign=middle;resizable=0;points=[];autosize=1;strokeColor=none;fillColor=none;" vertex="1" parent="WIyWlLk6GJQsqaUBKTNV-1">
          <mxGeometry x="552" y="599" width="38" height="26" as="geometry" />
        </mxCell>
        <mxCell id="dll8_rj09az58H-58eIl-136" value="" style="edgeStyle=orthogonalEdgeStyle;rounded=0;orthogonalLoop=1;jettySize=auto;html=1;" edge="1" parent="WIyWlLk6GJQsqaUBKTNV-1" source="dll8_rj09az58H-58eIl-134" target="dll8_rj09az58H-58eIl-135">
          <mxGeometry relative="1" as="geometry" />
        </mxCell>
        <mxCell id="dll8_rj09az58H-58eIl-134" value="Start" style="rounded=1;whiteSpace=wrap;html=1;" vertex="1" parent="WIyWlLk6GJQsqaUBKTNV-1">
          <mxGeometry x="277" y="40" width="120" height="45" as="geometry" />
        </mxCell>
        <mxCell id="dll8_rj09az58H-58eIl-139" style="edgeStyle=orthogonalEdgeStyle;rounded=0;orthogonalLoop=1;jettySize=auto;html=1;exitX=0.5;exitY=1;exitDx=0;exitDy=0;entryX=0.5;entryY=0;entryDx=0;entryDy=0;" edge="1" parent="WIyWlLk6GJQsqaUBKTNV-1" source="dll8_rj09az58H-58eIl-135" target="dll8_rj09az58H-58eIl-138">
          <mxGeometry relative="1" as="geometry" />
        </mxCell>
        <mxCell id="dll8_rj09az58H-58eIl-135" value="User Provides the LogIds,Priority, DataType" style="rounded=1;whiteSpace=wrap;html=1;" vertex="1" parent="WIyWlLk6GJQsqaUBKTNV-1">
          <mxGeometry x="277" y="112" width="120" height="45" as="geometry" />
        </mxCell>
        <mxCell id="dll8_rj09az58H-58eIl-140" style="edgeStyle=orthogonalEdgeStyle;rounded=0;orthogonalLoop=1;jettySize=auto;html=1;exitX=0.5;exitY=1;exitDx=0;exitDy=0;entryX=0.5;entryY=0;entryDx=0;entryDy=0;" edge="1" parent="WIyWlLk6GJQsqaUBKTNV-1" source="dll8_rj09az58H-58eIl-138" target="dll8_rj09az58H-58eIl-65">
          <mxGeometry relative="1" as="geometry" />
        </mxCell>
        <mxCell id="dll8_rj09az58H-58eIl-143" value="" style="edgeStyle=orthogonalEdgeStyle;rounded=0;orthogonalLoop=1;jettySize=auto;html=1;" edge="1" parent="WIyWlLk6GJQsqaUBKTNV-1" source="dll8_rj09az58H-58eIl-138" target="dll8_rj09az58H-58eIl-142">
          <mxGeometry relative="1" as="geometry" />
        </mxCell>
        <mxCell id="dll8_rj09az58H-58eIl-138" value="If LogIds==&lt;br&gt;Null" style="rhombus;whiteSpace=wrap;html=1;" vertex="1" parent="WIyWlLk6GJQsqaUBKTNV-1">
          <mxGeometry x="288" y="194" width="98" height="79" as="geometry" />
        </mxCell>
        <mxCell id="dll8_rj09az58H-58eIl-142" value="Fail and Exit&lt;br&gt;Print Cannot Start any step of the job" style="whiteSpace=wrap;html=1;" vertex="1" parent="WIyWlLk6GJQsqaUBKTNV-1">
          <mxGeometry x="455" y="203.5" width="120" height="60" as="geometry" />
        </mxCell>
        <mxCell id="dll8_rj09az58H-58eIl-144" value="No" style="text;html=1;align=center;verticalAlign=middle;resizable=0;points=[];autosize=1;strokeColor=none;fillColor=none;" vertex="1" parent="WIyWlLk6GJQsqaUBKTNV-1">
          <mxGeometry x="330" y="278" width="33" height="26" as="geometry" />
        </mxCell>
        <mxCell id="dll8_rj09az58H-58eIl-145" value="Yes" style="text;html=1;align=center;verticalAlign=middle;resizable=0;points=[];autosize=1;strokeColor=none;fillColor=none;" vertex="1" parent="WIyWlLk6GJQsqaUBKTNV-1">
          <mxGeometry x="392.5" y="213" width="38" height="26" as="geometry" />
        </mxCell>
        <mxCell id="dll8_rj09az58H-58eIl-146" value="By default priority=0 and dataType=product" style="text;html=1;strokeColor=none;fillColor=none;align=center;verticalAlign=middle;whiteSpace=wrap;rounded=0;fontStyle=2" vertex="1" parent="WIyWlLk6GJQsqaUBKTNV-1">
          <mxGeometry x="430.5" y="115" width="60" height="30" as="geometry" />
        </mxCell>
      </root>
    </mxGraphModel>
  </diagram>
</mxfile>
